<svg id="Layer_1" data-name="Layer 1" xmlns="http://www.w3.org/2000/svg" xmlns:xlink="http://www.w3.org/1999/xlink" viewBox="0 0 656.91 538.1" width="406" height="306" class="illustration styles_illustrationTablet__1DWOa"><defs><linearGradient id="linear-gradient" x1="452.63" y1="-131.1" x2="230.38" y2="1184.78" gradientUnits="userSpaceOnUse"><stop offset="0.01"></stop><stop offset="0.08" stop-opacity="0.69"></stop><stop offset="0.21" stop-opacity="0.32"></stop><stop offset="1" stop-opacity="0"></stop></linearGradient><linearGradient id="linear-gradient-2" x1="152.94" y1="280.92" x2="224.7" y2="578.85" xlink:href="#linear-gradient"></linearGradient><linearGradient id="linear-gradient-3" x1="425.89" y1="377.16" x2="616.28" y2="490.36" gradientTransform="matrix(-1, 0, 0, 1, 1011.07, -10.13)" xlink:href="#linear-gradient"></linearGradient><linearGradient id="linear-gradient-4" x1="499.99" y1="367.28" x2="398.27" y2="454.47" gradientTransform="matrix(-1, 0, 0, 1, 1011.07, -10.13)" xlink:href="#linear-gradient"></linearGradient><linearGradient id="linear-gradient-5" x1="1507.27" y1="713.39" x2="1457.85" y2="560.64" gradientTransform="matrix(-0.69, -0.73, -0.73, 0.69, 2023.23, 901.07)" xlink:href="#linear-gradient"></linearGradient><linearGradient id="linear-gradient-6" x1="473.11" y1="311.04" x2="435.44" y2="391.39" gradientTransform="matrix(-1, 0, 0, 1, 1028.52, 0)" xlink:href="#linear-gradient"></linearGradient><linearGradient id="linear-gradient-7" x1="463.93" y1="410.61" x2="534.08" y2="426.38" gradientTransform="matrix(-1, 0, 0, 1, 1011.07, -10.13)" xlink:href="#linear-gradient"></linearGradient><linearGradient id="linear-gradient-8" x1="513.75" y1="270.45" x2="375.31" y2="344.31" gradientTransform="matrix(-1, 0, 0, 1, 1028.52, 0)" xlink:href="#linear-gradient"></linearGradient><linearGradient id="linear-gradient-9" x1="466.56" y1="218.23" x2="538.64" y2="223.36" xlink:href="#linear-gradient"></linearGradient><linearGradient id="linear-gradient-10" x1="334.94" y1="170.9" x2="271.69" y2="273.52" gradientTransform="translate(-150.32 35.13) rotate(-5.4)" xlink:href="#linear-gradient"></linearGradient><linearGradient id="linear-gradient-11" x1="440.13" y1="290.65" x2="289.67" y2="164.91" gradientTransform="translate(-150.32 35.13) rotate(-5.4)" xlink:href="#linear-gradient"></linearGradient></defs><title>6. Motivation 2</title><path d="M670.81,398.88a262,262,0,0,1-10.44,40.82c-2,5.8-4.27,11.9-6.93,18.13-15.1,35.34-41.87,74.75-88,87.33C505,561.64,335.35,505.08,238.59,533.53c-91.13,26.8-147.4,7.36-180.38-25.15a128.75,128.75,0,0,1-14.79-17.46c-24.53-34.75-29.14-76.48-24.22-95.25,7.58-28.93,16.93-57.93,17.19-88.12.25-31.59-10.82-62.65-12-94.46C21.32,132.58,77.86,53.53,155.05,30.45c33-9.88,60-20,94.54-20.25,70-.6,236,0,317.8,119,14.62,21.26,35.86,37.15,52.16,57.15,21.84,26.8,36.25,59.12,45,92.56C674.74,317.88,677.27,359.2,670.81,398.88Z" transform="translate(-17.45 -10.13)" fill="#68e1fd" opacity="0.18" style="isolation: isolate;"></path><path d="M660.37,439.7c-2,5.8-4.27,11.9-6.93,18.13-9.49.27-19,.52-28.48.8-6.25.17-12.89.46-18,4-9.72,6.67-1.3,11.37-2.38,18-1.26,7.85-9.21,9.47-16.86,9.5-26.38.11-51.9,8.57-77.79,13.67s-54.17,6.56-77.21-6.29c-1.59-.87-3.24-1.95-3.84-3.66-1.09-3.07,1.72-6.05,4.4-7.9a56.5,56.5,0,0,1,19.6-8.51c4.14-.93,8.51-1.44,12.13-3.67s6.18-6.95,4.37-10.79q-90.16,5.61-179.95,15.82c-77,8.76-153.16,24-230.46,29.51l-.72.07a128.75,128.75,0,0,1-14.79-17.46,11.22,11.22,0,0,1,1.07-1.32c3.81-4.07,9.32-6,14.65-7.66,29.73-9.2,60.65-13.86,91.44-18.5,153-23.06,307.84-39.48,462.65-28.64C629,435.89,644.72,437.48,660.37,439.7Z" transform="translate(-17.45 -10.13)" fill="url(#linear-gradient)"></path><rect x="232.1" y="66.32" width="47.44" height="360.52" fill="#68e1fd" opacity="0.5" style="isolation: isolate;"></rect><rect x="337.27" y="178.31" width="47.44" height="244.64" fill="#68e1fd" opacity="0.5" style="isolation: isolate;"></rect><rect x="424.81" y="259.73" width="47.44" height="163.22" fill="#68e1fd" opacity="0.5" style="isolation: isolate;"></rect><polygon points="122.95 337.4 261.68 357.97 261.68 471.69 277.52 471.69 277.52 478.42 241.02 478.42 241.02 474.09 257.33 474.09 257.33 379.8 126.15 354.44 126.15 446.22 144.41 446.22 144.41 449.34 107.65 449.34 107.65 445.74 122.95 445.74 122.95 337.4" fill="#fff"></polygon><polygon points="120.78 337.4 259.52 357.97 259.52 471.69 275.36 471.69 275.36 478.42 238.85 478.42 238.85 474.09 255.17 474.09 255.17 379.8 123.99 354.44 123.99 446.22 142.25 446.22 142.25 449.34 105.49 449.34 105.49 445.74 120.78 445.74 120.78 337.4" fill="url(#linear-gradient-2)"></polygon><polygon points="507.78 339.85 510.1 453.79 525.54 453.79 529.99 363.23 539.72 453.79 557.41 456.76 561.47 336.12 507.78 339.85" fill="#68e1fd"></polygon><polygon points="507.78 339.85 510.1 453.79 525.54 453.79 529.99 363.23 539.72 453.79 557.41 456.76 561.47 336.12 507.78 339.85" fill="url(#linear-gradient-3)"></polygon><polygon points="546.83 452.02 546.83 346.41 561.47 336.12 556.53 453.79 546.83 452.02" fill="url(#linear-gradient-4)"></polygon><path d="M506.58,255.71s0,.15,0,.48c.38,8.69,1,17.41,2,26.06.43,3.66.41,9.15,2.29,12.44,2.77,4.84,15.7-.7,19.78-2.56,6.06-2.77,11.62-6.5,17.16-10.21a3.17,3.17,0,0,0,1.1-1,2.94,2.94,0,0,0,.29-1.34,35.18,35.18,0,0,0-8.68-25,134.78,134.78,0,0,1-16.09,17.26l-.78-4-2.34-12c-.7-3.57-.26-6-4.18-4.53C513.56,252.65,510.08,254.24,506.58,255.71Z" transform="translate(-17.45 -10.13)" fill="#68e1fd"></path><path d="M506.59,256.19c.31,7.11.78,14.22,1.47,21.31.55,5.73-.18,20.41,8.38,19.35,6.85-.84,12.73-5.16,19.29-7.26,2.37-.76,4.88-1.25,7-2.52a14.42,14.42,0,0,0,6-8.46,43,43,0,0,0,1.26-10.5c-5.9,2.34-10.71,6.72-15.69,10.66a42.87,42.87,0,0,1-10.76,6.66c-4.55,1.79-6.1,1.56-5.9-3.54a71.27,71.27,0,0,0-3.33-24.48,2.16,2.16,0,0,0-.55-1,1.91,1.91,0,0,0-1.25-.28C510.55,256.14,508.56,256.14,506.59,256.19Z" transform="translate(-17.45 -10.13)" fill="url(#linear-gradient-5)"></path><path d="M567.47,249.19a138.22,138.22,0,0,1,12,6.8c8.26,5.29,6.78,7.75,5.25,16.88A360.87,360.87,0,0,0,579.92,332c0,4.65.31,9.77-1,14.29-.86,3-2.84,5.41-3.06,8.53-12.74,1.75-41.9,8.31-50.64-4.79-8.35-12.53,6.68-57.06,3.9-76.83s22.83-22,22.83-22Z" transform="translate(-17.45 -10.13)" fill="#68e1fd"></path><path d="M549.91,340.52,573,356.1l3.78-4.82a85.29,85.29,0,0,0,3.09-24.68c-.56-12.44.06-8,.06-8l-32.49,20.55Z" transform="translate(-17.45 -10.13)" fill="url(#linear-gradient-6)"></path><path d="M538.42,229.92a18.31,18.31,0,0,0,3.4,11.61,6,6,0,0,0,1.64,2.13c1.34.94,3.15.64,4.77.38a2.2,2.2,0,0,1,1.14,0c.91.34,1,1.57,1,2.55l-.25,4.53a2.86,2.86,0,0,0,.31,1.81,2.34,2.34,0,0,0,1.2.78,9.68,9.68,0,0,0,9.74-2.21,6.51,6.51,0,0,0,1.54-2.07,8.58,8.58,0,0,0,.56-2.35c.55-4.32.1-8.72.4-13.07.25-3.61,1-7.27.32-10.83a12,12,0,0,0-7-8.83c-3.61-1.46-7.72-.81-11.47.25a52.88,52.88,0,0,0-5.32,1.81,3.6,3.6,0,0,0-2.07,1.5c-.69,1.39.06,3.41.09,4.9C538.46,225.2,538.42,227.56,538.42,229.92Z" transform="translate(-17.45 -10.13)" fill="#ffbbab"></path><path d="M538.4,212.09c-.39.88-1,1.65-1.43,2.5a3.79,3.79,0,0,0-.48,2.77,3.93,3.93,0,0,0,1.38,1.85c3,2.46,7.13,3,11,2.76a18.19,18.19,0,0,1,3.3,0,4.6,4.6,0,0,1,2.92,1.41c1.14,1.32,1.07,3.25,1.43,4.95a.49.49,0,0,0,.13.29.52.52,0,0,0,.21.07c1.23.16,2.38-1.3,3.51-.81a1.83,1.83,0,0,1,.93,1.56,4.34,4.34,0,0,1-.32,2.22,2.28,2.28,0,0,0-.28.87,1.66,1.66,0,0,0,.15.61l.78,2.15a3.35,3.35,0,0,0,1.36,2c.94.47,2-.05,2.95-.58a4.65,4.65,0,0,0,1.59-1.32,4.45,4.45,0,0,0,.57-1.55c1.21-5.34,1.3-10.87,1.3-16.34a9.56,9.56,0,0,0-.53-3.77c-1.05-2.41-3.85-3.5-6.43-4.06a69.93,69.93,0,0,0-14.47-1,20.21,20.21,0,0,0-4.53.32,7,7,0,0,0-3.9,2.19" transform="translate(-17.45 -10.13)" fill="#963637"></path><path d="M545.94,235a3.38,3.38,0,0,1,1.7,1.87.3.3,0,0,1,0,.26.32.32,0,0,1-.24.09,36.26,36.26,0,0,1-5,0,9.6,9.6,0,0,1-3.78-.92.54.54,0,0,1-.23-.19.45.45,0,0,1,0-.25,2.49,2.49,0,0,1,2.69-2.35A10.8,10.8,0,0,1,545.94,235Z" transform="translate(-17.45 -10.13)" fill="#963637"></path><path d="M563.44,247.11s3.53,2.48,3.44,5.17S547.63,309,547.63,309s-.45-51.68,0-54.1a39.37,39.37,0,0,1,2.6-6.76S557.87,253.64,563.44,247.11Z" transform="translate(-17.45 -10.13)" fill="#fff"></path><polygon points="539.72 241.87 540.99 246.05 538.83 247.86 537.8 277.18 530.18 298.84 529.99 276.81 536.54 247.72 534.15 243.62 537.3 241.87 539.72 241.87" fill="#212741"></polygon><path d="M543,328.24a50.19,50.19,0,0,0,7.65,7.77c.57.47,1.16.95,1.76,1.38a4.18,4.18,0,0,0,2.25,1.05,4.58,4.58,0,0,0,1.66-.39c11.15-4.35,22.11-9.26,32.76-14.69,4.47-2.3,9.38-5.3,10.32-10.23a16.26,16.26,0,0,0-.11-5.16,149.31,149.31,0,0,0-9.71-36.32c-1.35-3.3-3-9.65-6.55-11.78l0,0-.41-.22-.5-.24c-4.76-1.72-8.87,3-10.18,7-1.84,5.7-.95,11.9.54,17.7s3.55,11.47,4.07,17.44a4.77,4.77,0,0,1-.24,2.43,5.31,5.31,0,0,1-1.84,1.84Z" transform="translate(-17.45 -10.13)" fill="#68e1fd"></path><path d="M543,463.92l-.84,8.39-5.28,1-2.37-2.09-4,3.2H514.6s-4-7,4.73-9.32l8.77-2.37Z" transform="translate(-17.45 -10.13)" fill="#212741"></path><path d="M574,463.92l-.84,8.39-5.28,1-2.37-2.09-4,3.2H545.59s-4-7,4.73-9.32l8.77-2.37Z" transform="translate(-17.45 -10.13)" fill="#212741"></path><polygon points="529.99 363.23 522.9 357.48 517.89 452.58 525.54 453.79 529.99 363.23" fill="url(#linear-gradient-7)"></polygon><path d="M550.64,336c.57.47,1.16.95,1.76,1.38a4.18,4.18,0,0,0,2.25,1.05,4.58,4.58,0,0,0,1.66-.39c11.15-4.35,22.11-9.26,32.76-14.69,4.47-2.3,9.38-5.3,10.32-10.23a16.26,16.26,0,0,0-.11-5.16,149.31,149.31,0,0,0-9.71-36.32c-1.35-3.3-3-9.65-6.55-11.78l0,0-.41-.22-.5-.24a10.62,10.62,0,0,0-10.18,7s16.89,34.56,16.16,39.76-36.17,22.13-36.17,22.13Z" transform="translate(-17.45 -10.13)" fill="url(#linear-gradient-8)"></path><path d="M535,331.14a6.55,6.55,0,0,0-2.53,1.26,2.48,2.48,0,0,0-.81,2.56,10.19,10.19,0,0,0,1,1.52c.47.81.52,1.81.94,2.65a6,6,0,0,0,3.54,2.57c4.22,1.52,9.37,1.74,12.77-1.18,2.49-2.13,7.45-10.88,2-12.2-2-.49-4.9.43-6.92.71A62.44,62.44,0,0,0,535,331.14Z" transform="translate(-17.45 -10.13)" fill="#ffbbab"></path><path d="M530.85,228s-23.65-4.08-28.54-10.72v24.93s5.59-5.24,28.54-5.59C530.85,236.58,535.39,232.85,530.85,228Z" transform="translate(-17.45 -10.13)" fill="#68e1fd"></path><ellipse cx="483.87" cy="219.46" rx="4.6" ry="13.16" fill="#68e1fd"></ellipse><ellipse cx="483.87" cy="219.46" rx="4.01" ry="11.48" fill="url(#linear-gradient-9)"></ellipse><path d="M526.07,236.31s.7,12.76-3,14.42-5.24-.44-4.89-1.14,3.95-9.89,2.32-12.46S526.07,236.31,526.07,236.31Z" transform="translate(-17.45 -10.13)" fill="#68e1fd"></path><path d="M510.6,248.16c0-2.23-.22-4.56.66-6.62a4.08,4.08,0,0,1,1.37-1.78,5.31,5.31,0,0,1,1.91-.71,26.39,26.39,0,0,1,9.08-.35,1.25,1.25,0,0,1,1.27.94,9.8,9.8,0,0,1-.14,7,28.94,28.94,0,0,1-3.53,6.24,9.38,9.38,0,0,1-2.37,2.68c-2,1.3-6.74,1.69-8.58-.07a2.6,2.6,0,0,1-.48-2.74A19.05,19.05,0,0,0,510.6,248.16Z" transform="translate(-17.45 -10.13)" fill="#ffbbab"></path><path d="M500.63,228.61a1.84,1.84,0,0,0-.81.38,1.32,1.32,0,0,0-.35.92,2.85,2.85,0,0,0,1.06,2.16,5.35,5.35,0,0,0,2.23,1,.57.57,0,0,0,.26,0,.51.51,0,0,0,.23-.16,3.77,3.77,0,0,0,.83-2.14,4,4,0,0,0,0-1.58C503.55,227.39,501.91,228.26,500.63,228.61Z" transform="translate(-17.45 -10.13)" fill="#68e1fd"></path><path d="M220,316.79s24.38,35.3,27.54,35.48,55.64,1.7,55.64,1.7l-.31-11s-24.09-11.41-34.45-8c-6.94,2.27-8.16,1.79-8.16,1.79s-8.88-26.56-12.18-31.85S220,316.79,220,316.79Z" transform="translate(-17.45 -10.13)" fill="#282328"></path><path d="M244.4,298.45s1.37,19.31-3.69,26.2-50.08,25.27-50.08,25.27-4.89,18.84-9.65,23-23.73,22-23.73,22l-8.3-8.08,26.19-43.61s1.58-5.83,4.19-7.85,34.81-37.15,34.81-37.15Z" transform="translate(-17.45 -10.13)" fill="#473f47"></path><path d="M227.11,222.44l7.85,1.7c2.71.59,5.68,1.34,7.26,3.61,1.49,2.12,1.32,4.95,1,7.52-.41,3.44-.95,6.87-1.62,10.27-.89,4.52-2,9-2.48,13.58-1.13,11.31,1.85,22.58,4.8,33.55,1,3.53-3.62,6.08-7,7.47a40.26,40.26,0,0,1-20.39,2.66,3.91,3.91,0,0,1-1.78-.55,4.13,4.13,0,0,1-1.31-2.54c-1.4-5.89-2.49-11.88-4.31-17.67a48.52,48.52,0,0,0-3.4-8.44c-1.37-2.57-1.86-5.55-3-8.27-.92-2.21-2.06-4.32-2.87-6.58a13.18,13.18,0,0,1-.77-7c.54-2.57,1.53-5.07,2.3-7.58a62.8,62.8,0,0,0,1.94-8.35,21.09,21.09,0,0,1,1.42-5.62c1.75-3.73,5.76-5.93,9.77-6.89S223.08,221.56,227.11,222.44Z" transform="translate(-17.45 -10.13)" fill="#ffbbab"></path><path d="M177.29,202.38c-2.45-2.39-4.94-4.68-6.6-7.7a51.62,51.62,0,0,1-4.78-11.79,10.76,10.76,0,0,1-.46-4.53c.36-2.09,1.8-3.9,2-6a.93.93,0,0,0-.12-.66,1,1,0,0,0-.77-.29l-2.43-.19a7.86,7.86,0,0,0-1.87-5.06c-.87-1-2.26-1.84-3.51-1.38s-1.82,2.19-2.83,3.24-2.39,1.4-3.26,2.45c-1,1.24-1,3-1,4.66.2,4.42,2.42,7.28,3.9,11.26a100.29,100.29,0,0,0,5.57,12.32,105.31,105.31,0,0,0,15.67,22,107,107,0,0,0,10.65,10c4.13,3.37,19.77,16.79,24.44,11.77,6.33-6.8-.14-15-6-18.4A145.52,145.52,0,0,1,177.29,202.38Z" transform="translate(-17.45 -10.13)" fill="#ffbbab"></path><path d="M212.57,222.38q-2.67,6.39-5,12.92c-.49,1.39-1,3-.22,4.28a4.11,4.11,0,0,0,2.44,1.71c4,1.29,8.56-.4,11.74-3.21s5.3-6.6,7.4-10.28a19,19,0,0,1,4.2-5.59,6.65,6.65,0,0,1,6.55-1.34c2.15.91,3.38,3.88,2,5.78-.25-1.77-2.66-2.49-4.26-1.7s-2.51,2.49-3.25,4.12a67,67,0,0,0-2.57,6.56,15.92,15.92,0,0,0-1,5.08c.07,4.22,3.07,7.79,6.17,10.65A13.7,13.7,0,0,1,240,255c1.1,2.15.86,4.71.74,7.12-.52,10,1.42,19.93,3.94,29.6.48,1.81.92,3.91-.19,5.42A5.75,5.75,0,0,1,241,299c-6.25,1.43-12.82.89-19.09,2.21-3.9.83-7.66,2.37-11.64,2.74a2.17,2.17,0,0,1-1.55-.27,2.29,2.29,0,0,1-.63-1.67c-1-11.09-1.3-22.45-5.2-32.88-1.83-4.89-4.46-9.56-5.25-14.72a8.94,8.94,0,0,1,0-3.38,12.45,12.45,0,0,1,1.43-3.1,44.66,44.66,0,0,0,5.52-18.57" transform="translate(-17.45 -10.13)" fill="#fff"></path><path d="M237.78,270.05c.17,1.85.19,4-1.22,5.21a7.36,7.36,0,0,0-1.17,1c-.7.89-.35,2.16-.34,3.29,0,2.2-1.31,4.14-2.14,6.18s-.92,4.81.91,6c1.18.78,2.85.67,3.86,1.65,1.57,1.53.76,4.9,2.81,5.68a2.49,2.49,0,0,0,2.92-1.52,7.17,7.17,0,0,0,.31-3.57q-1.51-18.85-3.3-37.69a4.21,4.21,0,0,0-1.72-3.48c-1.06-1-2.52-3-3.86-3.36-1,2.26.88,6.48,1.31,8.81Q237.23,264.1,237.78,270.05Z" transform="translate(-17.45 -10.13)" fill="#020202" opacity="0.1"></path><path d="M194.59,203.63c-.4,1.12-1,2.26-.78,3.42a6.07,6.07,0,0,0,1.29,2.16,15.37,15.37,0,0,1,2.34,5.14c.39,1.39.73,2.91,1.82,3.86,1.34,1.19,3.36,1.09,5.13.84,1.36-.19,2.7-.43,4-.73a3.25,3.25,0,0,1,1.48-.1,2.61,2.61,0,0,1,1.26.84c2.23,2.39,2.6,5.93,4,8.91a2.71,2.71,0,0,0,2.34,1.9,12.24,12.24,0,0,0,8.84-1.58,3.4,3.4,0,0,0,1.56-1.64,3.88,3.88,0,0,0-.23-2.5,44.87,44.87,0,0,0-2.62-6.29c-1.39-2.73-3.08-5.42-3.39-8.47-.28-2.7.57-5.41.5-8.12-.16-5.66-4.7-10.75-10.21-12-4.81-1.12-9.41.57-13.23,3.45-1.35,1-2.47,1.65-2.91,3.37C195.14,198.56,195.47,201.19,194.59,203.63Z" transform="translate(-17.45 -10.13)" fill="#ffbbab"></path><path d="M195.25,185.77a9.34,9.34,0,0,1,4.47-6.41c7.11-4.47,19.27-4,25.39,2.12,2,2,3.38,4.77,5.68,6.53,3,2.3,7,2.55,10.75,2.72a12.06,12.06,0,0,1-3.08,3.13,6.37,6.37,0,0,0,3.44,2.85l-2.54,1.65,3,2.49a16.32,16.32,0,0,1-3.82,1.64,58.88,58.88,0,0,0,1.88,8.42,8.52,8.52,0,0,0-4.22-1.7,13,13,0,0,0-.8,5.7l-3.67-1.86a9.43,9.43,0,0,1-1.63,5c1.3-1.91-4.47-4.62-5.59-4.75-1.36-.15-2.29.42-3.36-.23-1.38-.86-2.31-3.15-3.84-4.18.83-1.2,1.94-2.19,2.68-3.45a3.83,3.83,0,0,0,.14-4.12c-.87-1.16-3.14-1-3.45.4.11-3.75-2.71-6.93-5.67-9.22a3.53,3.53,0,0,0-3.5-.87q-2.52.45-5,1.12c-1.23.34-3.38,1.45-4.68,1C195.57,192.9,195,187.79,195.25,185.77Z" transform="translate(-17.45 -10.13)" fill="#fc682d"></path><path d="M315.44,338.81a4.66,4.66,0,0,1,2.76-.13,5.21,5.21,0,0,1,2,1.62q7.83,8.93,15.05,18.36a9.08,9.08,0,0,1,1.86,3.33c.62,2.66-1.18,5.22-2.87,7.36-1,1.29-3,2.63-4,1.35-.64-.8-.22-2-.47-3-.3-1.22-1.52-1.93-2.63-2.52l-23.48-12.33c-3.34-1.75-4.46-7.36-1-9.63,1.48-1,4-1,5.66-1.65C310.71,340.7,313,339.51,315.44,338.81Z" transform="translate(-17.45 -10.13)" fill="#ffbbab"></path><path d="M214.52,217.76a2.07,2.07,0,0,1,1.33.17,2,2,0,0,1,.7,1.23,36.19,36.19,0,0,1,1.17,7.3,5.12,5.12,0,0,1-.16,1.95,1.91,1.91,0,0,1-1.36,1.3c-.75.13-1.47-.35-2.23-.41a2.82,2.82,0,0,0-2.2,1,9.7,9.7,0,0,0-1.33,2.1,37.5,37.5,0,0,1-3.16,4.93,34.82,34.82,0,0,1,2.64-10.18,4.51,4.51,0,0,1,1.65-2.26c.61-.36,1.41-.48,1.79-1.07.61-.94-.32-2.08-1.09-2.89s-2.13-2-1.48-2.77C211.19,217.67,213.9,217.82,214.52,217.76Z" transform="translate(-17.45 -10.13)" fill="#e0a194"></path><path d="M264.9,195.15a66.61,66.61,0,0,0,4.82-7.63c3.75-7.34,5.73-16.61,3.89-24.74a8.11,8.11,0,0,1-.35-2.8,2.35,2.35,0,0,1,1.64-2.1,5.71,5.71,0,0,0,1.18-.21c.57-.28.73-1,1.13-1.5a2.54,2.54,0,0,1,2.73-.68,6.84,6.84,0,0,1,2.48,1.62,42.79,42.79,0,0,1,3.21,3.25,6.91,6.91,0,0,1,1.81,3c.39,1.9-.72,3.75-1.79,5.38-1.75.16-2.2,5.12-2.39,6.3-.44,2.62-1,5.23-1.63,7.81A103.18,103.18,0,0,1,276.58,198a105.83,105.83,0,0,1-16.4,26.84c-3.43,4.08-16.28,20.2-21.8,16.14-7.49-5.49-2.67-14.73,2.41-19.19A145,145,0,0,0,264.9,195.15Z" transform="translate(-17.45 -10.13)" fill="#ffbbab"></path><path d="M199,208.71a20.56,20.56,0,0,1,3-.6.65.65,0,0,1,.39,0,.59.59,0,0,1,.22.27,7.09,7.09,0,0,1,.65,4.75,3.52,3.52,0,0,1-.76,1.73,1.64,1.64,0,0,1-1.73.5,2.53,2.53,0,0,1-1.1-1.14,9.75,9.75,0,0,1-1.87-4.8.58.58,0,0,1,0-.23.52.52,0,0,1,.25-.21,4.43,4.43,0,0,1,1.85-.49" transform="translate(-17.45 -10.13)" fill="#fff"></path><path d="M193.22,213.61l-.49-.12C192.92,213.35,193.17,213.39,193.22,213.61Z" transform="translate(-17.45 -10.13)" fill="#68e1fd"></path><path d="M281.92,183.42a21.08,21.08,0,0,1-.92,8.91c-5.74,19.7-17.33,38.2-34.52,49.4A7.39,7.39,0,0,0,244,244a6.9,6.9,0,0,0-.63,2.79c-1.23,16.9,2.82,33.77,2.85,50.72a6.87,6.87,0,0,1-1,4.25c-1.08,1.44-3,1.81-4.81,2.05-1.18.17-2.36.34-3.55.47a246,246,0,0,1-25.74,1.93c-1.46,0-3.1,0-4.18-1s-1.25-2.66-1.37-4.16c-1-11.47-4.83-22.4-7.57-33.51A98.52,98.52,0,0,1,195.17,251c-.21-3-.08-5.86-1.59-8.28a8,8,0,0,0-1.74-2c-2.58-2.14-5.9-3.15-8.7-5-4.63-3.05-7.51-8.12-10.18-13-3.91-7.07-7.92-14.09-11.73-21.22-2.82-5.26-.45-8.2,3.29-11,1.34-1,2.86-2,4.38-3.13,2.7,5.55,5.44,11.15,9.31,16,3.75,4.67,8.72,8.62,14.52,10.12a.42.42,0,0,0-.3.4c0,.41.4.69.76.92q6.45,4,12.91,8.13a6.59,6.59,0,0,0,2.78,1.16c1.14.08,4.68-1.87,4.89.13,0,.12,0,.25,0,.38a15.59,15.59,0,0,0-.41,2.08,2.35,2.35,0,0,0,1.64,1.89,5.07,5.07,0,0,0,2.62-.06,9.9,9.9,0,0,0,2.67-1.12c1.34-.86,2.38-2.12,3.64-3.1,2-1.61,4.27-1.36,6.72-1.64a28.44,28.44,0,0,0,7.29-1.76c6.7-2.75,12.42-7.66,16.93-13.25,6.61-8.21,11.05-17.91,16.39-27a7.65,7.65,0,0,1,2.27-2.73,5,5,0,0,1,5.37.38A7.45,7.45,0,0,1,281.92,183.42Z" transform="translate(-17.45 -10.13)" fill="#68e1fd"></path><path d="M309.9,343.32c.39,1.59,1.73,2.73,3,3.8,2.78,2.38,5.51,5,6.91,8.4.7,1.69,1.05,3.54,2,5.1s2.76,2.92,3.81,4.63c1.58,2.59,1.54,6.16,3.8,8.2,2.66,2.39,7.28,1.07,9.25-1.91s1.85-6.9,1-10.37c-1.83-7.16-6.47-13.25-11.38-18.78-3-3.35-7-7-11.88-6.58C313.13,336.1,309,339.78,309.9,343.32Z" transform="translate(-17.45 -10.13)" fill="#68e1fd"></path><path d="M193.52,242.54a12.76,12.76,0,0,0-1.68-1.77c-2.58-2.14-5.9-3.15-8.7-5-4.63-3.05-7.51-8.12-10.18-13-3.91-7.07-7.92-14.09-11.73-21.22-2.82-5.26-.45-8.2,3.29-11A9,9,0,0,1,167,193c1.43,2.06,2.15,4.52,3.12,6.84a49.12,49.12,0,0,0,9.77,14.36c4.19,4.51,8.21,9.22,12.38,13.79a3,3,0,0,1,.6.82,3.16,3.16,0,0,1,.06,1.56,28,28,0,0,0,0,6.47C193.06,238.16,194.46,241.6,193.52,242.54Z" transform="translate(-17.45 -10.13)" fill="url(#linear-gradient-10)"></path><path d="M281.92,183.42a21.08,21.08,0,0,1-.92,8.91c-5.74,19.7-17.33,38.2-34.52,49.4A7.39,7.39,0,0,0,244,244a6.9,6.9,0,0,0-.63,2.79c-1.23,16.9,2.82,33.77,2.85,50.72a6.87,6.87,0,0,1-1,4.25c-1.08,1.44-3,1.81-4.81,2.05-1.18.17-2.36.34-3.55.47h-.24a5.53,5.53,0,0,1-3-.48,5,5,0,0,1-1.91-2.59c-2.48-5.85-2.78-12.38-4.28-18.55s-4.77-12.57-10.68-14.9a13.61,13.61,0,0,1-3.86-1.73c-1.08-.91-1.64-2.67-.69-3.72a3.64,3.64,0,0,1,1.66-.87c3.46-1.09,7-1.86,10.34-3.37s6.4-3.9,7.78-7.26c1.29-3.08,1-6.65,2.5-9.64,1.71-3.49,5.38-5.49,8.71-7.53a82.93,82.93,0,0,0,28.76-29.93c3.09-5.49,4.51-14.65,8.7-19.11A7.23,7.23,0,0,1,281.92,183.42Z" transform="translate(-17.45 -10.13)" fill="url(#linear-gradient-11)"></path><path d="M137.6,392.9c-5.37.72-10.83.38-16.24.7a4.44,4.44,0,0,0-2.63.74c-1.25,1-1,3.12,0,4.36a9.28,9.28,0,0,0,4.17,2.37l8,2.84c4.33,1.54,8.79,3.1,13.38,3,2.52-.06,5.39-.92,6.36-3.24.32-.76.4-1.61.67-2.4.81-2.35,3.23-3.81,4.25-6.08,1.47-3.23-1-8.48-4.84-7.45-2,.53-3.94,2.56-5.94,3.36A30.21,30.21,0,0,1,137.6,392.9Z" transform="translate(-17.45 -10.13)" fill="#ffbbab"></path><path d="M126.65,393.21c1.29.06,2.72.18,3.58,1.14,1.23,1.35.66,3.64,1.72,5.13a5,5,0,0,0,1.9,1.42A23.43,23.43,0,0,0,150,402.57c.88-.23,2.19-.24,2.29.66a1.31,1.31,0,0,1-.18.72,8.22,8.22,0,0,1-6.34,4.23,20.32,20.32,0,0,1-7.85-.76,168,168,0,0,1-20.18-6.82,7.09,7.09,0,0,1-3.26-2,3.1,3.1,0,0,1,1.9-5.06A44.65,44.65,0,0,1,126.65,393.21Z" transform="translate(-17.45 -10.13)" fill="#68e1fd"></path></svg>