<svg xmlns="http://www.w3.org/2000/svg" viewBox="0 0 400 300" width="406" height="306" class="illustration styles_illustrationTablet__1DWOa"><g id="_502_progress_flatline" data-name="#502_progress_flatline"><circle cx="285.96" cy="82.33" r="55.07" fill="#fff"></circle><path d="M286,137.9a55.57,55.57,0,1,1,55.57-55.57A55.63,55.63,0,0,1,286,137.9Zm0-110.14a54.57,54.57,0,1,0,54.57,54.57A54.63,54.63,0,0,0,286,27.76Z" fill="#231f20"></path><circle cx="285.96" cy="82.33" r="42.23" fill="#68e1fd"></circle><circle cx="285.96" cy="82.33" r="29.86" fill="#fff"></circle><circle cx="285.96" cy="82.33" r="19.66" fill="#68e1fd"></circle><path d="M61.15,197.07v13.14l92.35,60s49.93-37.14,81.46-82.19,44.49-83,44.49-83h14.49v-4.53l-19.18-6.26-28.31,4.2v4.61l17.37.85s-26.41,59.35-85.45,86.92S61.15,197.07,61.15,197.07Z" fill="#d1d3d4"></path><path d="M153.5,270.74a.43.43,0,0,1-.27-.08l-92.36-60a.5.5,0,0,1-.22-.42V197.07a.52.52,0,0,1,.21-.41.53.53,0,0,1,.46-.06c.58.22,58.68,21,116.84-6.16,54.84-25.61,81.76-79.41,84.9-86l-16.64-.81a.5.5,0,0,1-.47-.5V98.51a.51.51,0,0,1,.43-.5l28.3-4.19a.58.58,0,0,1,.23,0l19.18,6.26a.5.5,0,0,1,.35.47v4.53a.5.5,0,0,1-.5.49H279.8c-1.38,3.88-14.78,40.4-44.43,82.76-31.22,44.6-81.08,81.92-81.58,82.3A.5.5,0,0,1,153.5,270.74Zm-91.86-60.8,91.84,59.7c4.05-3.07,51.16-39.13,81.07-81.86,31.13-44.47,44.3-82.47,44.43-82.85a.49.49,0,0,1,.47-.33h14v-3.67l-18.73-6.11L247,98.94v3.71l16.9.82a.52.52,0,0,1,.4.24.53.53,0,0,1,0,.46c-.27.6-27.17,59.84-85.7,87.18C123.41,217.11,68.31,200,61.64,197.77Z" fill="#231f20"></path><path d="M293.94,100.57H278a379.73,379.73,0,0,1-35.69,63.27c-35.29,49.67-88,89.16-88,89.16l-28.61-17.17-27.82-16.7L61.14,197.07s60.47,5.13,133.43-40.77c42.29-26.6,67.08-57.79,67.08-57.79h-15.2L286.39,80Z" fill="#fff"></path><path d="M154.32,253.5a.48.48,0,0,1-.26-.07L60.88,197.5a.5.5,0,0,1,.3-.93c.61.05,61.16,4.58,133.13-40.69,38-23.88,62.06-51.79,66.28-56.87H246.45a.5.5,0,0,1-.21-1l39.94-18.55a.47.47,0,0,1,.4,0,.5.5,0,0,1,.28.29l7.55,20.61a.5.5,0,0,1-.47.67H278.31c-1.47,3.38-15,34.05-35.61,63.06-34.93,49.16-87.55,88.87-88.08,89.27A.47.47,0,0,1,154.32,253.5Zm-91.2-55.83,91.17,54.73c4.11-3.13,54-41.63,87.59-88.85,21.68-30.51,35.5-62.85,35.64-63.18a.51.51,0,0,1,.46-.3h15.25l-7.12-19.43L248.72,98h12.93a.5.5,0,0,1,.45.28.49.49,0,0,1-.06.53c-.25.31-25.32,31.56-67.2,57.9-37.76,23.76-72.1,33.6-94.25,37.67C81.58,197.88,68,197.84,63.12,197.67Z" fill="#231f20"></path><path d="M167.81,208.58c-2.67,1.12-28.58,18.27-41.65,26.95L98.37,218.92c8.95-4,24.13-10.57,29.41-11.09,7.55-.75,28.77-5,36.56-8.86s33-21.13,38-18.8S171.38,207.08,167.81,208.58Z" fill="#e6e7e8"></path><path d="M180.28,74.73s3.58,3.44,3.21,4.4-2.32.82-2.32.82" fill="#fff"></path><path d="M181.45,80.46h-.32a.5.5,0,0,1,.07-1c.65,0,1.67-.08,1.82-.5s-1.41-2.24-3.09-3.85a.5.5,0,0,1,0-.71.49.49,0,0,1,.7,0c1.43,1.37,3.76,3.83,3.34,4.94S182.12,80.46,181.45,80.46Z" fill="#231f20"></path><path d="M178.5,69.53c2,1,2.18,4,2.6,6,.58,2.69,1.11,5.39,1.57,8.1.29,1.72-4.11,2.75-5,2.41l2.21,6.56-10-1.46L169,85.46s-1.82-5.62-.88-9.47a13.57,13.57,0,0,1,3.81-6.36S176.54,68.55,178.5,69.53Z" fill="#fff"></path><path d="M179.88,93.05h-.08l-10-1.47a.49.49,0,0,1-.42-.41l-.88-5.64c-.05-.16-1.82-5.72-.86-9.66a14,14,0,0,1,4-6.62.57.57,0,0,1,.22-.11c.2,0,4.85-1.11,6.95-.06h0c1.89,1,2.32,3.34,2.66,5.27.07.36.13.71.2,1,.58,2.67,1.11,5.41,1.57,8.11a1.72,1.72,0,0,1-.75,1.66,7.85,7.85,0,0,1-4,1.4l2,5.84a.5.5,0,0,1-.47.66Zm-9.61-2.4,8.87,1.29-1.94-5.79a.51.51,0,0,1,.13-.52.5.5,0,0,1,.52-.1,6.66,6.66,0,0,0,3.92-1.15c.31-.25.44-.49.4-.72-.46-2.69-1-5.41-1.56-8.07-.07-.33-.14-.69-.2-1.07-.31-1.7-.68-3.82-2.13-4.54s-4.8-.19-6.15.11a13.17,13.17,0,0,0-3.56,6c-.9,3.67.85,9.15.86,9.2Z" fill="#231f20"></path><path d="M182.15,81.59a2.23,2.23,0,0,1-3.38-.15" fill="#fff"></path><path d="M180.44,82.83h-.12a2.65,2.65,0,0,1-1.93-1.06.5.5,0,1,1,.76-.64,1.77,1.77,0,0,0,1.21.71,2.3,2.3,0,0,0,1.44-.6.5.5,0,0,1,.71,0,.49.49,0,0,1,0,.7A3.25,3.25,0,0,1,180.44,82.83Z" fill="#231f20"></path><ellipse cx="178.45" cy="73.99" rx="0.39" ry="0.98" transform="translate(-13.41 51.45) rotate(-15.82)" fill="#231f20"></ellipse><path d="M168.34,93.17l.12-3.14,12.12-.72,2.52,5.12A51,51,0,0,1,168.34,93.17Z" fill="#fff"></path><path d="M180.28,95a53.88,53.88,0,0,1-12.05-1.37.49.49,0,0,1-.39-.5L168,90a.49.49,0,0,1,.47-.48l12.12-.72a.51.51,0,0,1,.48.28l2.52,5.12a.47.47,0,0,1,0,.46.48.48,0,0,1-.39.25S182.06,95,180.28,95Zm-11.43-2.25A52.63,52.63,0,0,0,182.33,94l-2.05-4.15-11.34.67Z" fill="#231f20"></path><path d="M209.78,104a36,36,0,0,0,2.58-4.35,13.54,13.54,0,0,1,.56-3.22c.49-1,1.86-2,2.58-.65,0,0,.25-2.34,1.86-1.13a4.21,4.21,0,0,1,1.69,4.5c-.32,1.79-6.37,11.06-6.37,11.06" fill="#fff"></path><path d="M212.68,110.72a.45.45,0,0,1-.27-.08.5.5,0,0,1-.15-.69c2.41-3.69,6.08-9.64,6.3-10.87a3.71,3.71,0,0,0-1.5-4c-.27-.2-.49-.28-.61-.23s-.41.65-.45,1a.5.5,0,0,1-.94.18c-.22-.41-.44-.41-.51-.41a1.74,1.74,0,0,0-1.17,1,6.44,6.44,0,0,0-.41,2.13,7.84,7.84,0,0,1-.12,1,30.81,30.81,0,0,1-2.66,4.52.5.5,0,0,1-.83-.55,31.85,31.85,0,0,0,2.51-4.19,7.61,7.61,0,0,0,.1-.86,7.29,7.29,0,0,1,.5-2.46,2.65,2.65,0,0,1,2.05-1.62,1.34,1.34,0,0,1,.73.19,1.62,1.62,0,0,1,.8-.89,1.58,1.58,0,0,1,1.61.35,4.69,4.69,0,0,1,1.88,5c-.33,1.84-5.82,10.29-6.44,11.25A.52.52,0,0,1,212.68,110.72Z" fill="#231f20"></path><path d="M135.52,123s-1.34,2.22-2.11,3.91a24.1,24.1,0,0,0-1.24,5c-.39-.56-1.08-.75-1.5-1.25a6.81,6.81,0,0,1-.7,2.08,2.23,2.23,0,0,1-1.78,1.13,2.82,2.82,0,0,1-1.13-.29c-1.3-.55-3.44-1.54-3.58-3.18a3.31,3.31,0,0,1,.51-1.79c1.23-2.28,6.34-8.06,7.17-9" fill="#fff"></path><path d="M128.18,134.29a3.43,3.43,0,0,1-1.32-.33c-1.11-.47-3.7-1.57-3.88-3.6a3.73,3.73,0,0,1,.57-2.06c1.37-2.55,7.18-9,7.24-9.1a.5.5,0,1,1,.75.67c-1.5,1.66-6,6.85-7.1,8.9a2.77,2.77,0,0,0-.46,1.51c.11,1.26,1.81,2.14,3.28,2.76a2.32,2.32,0,0,0,.92.25,1.73,1.73,0,0,0,1.36-.89,6,6,0,0,0,.64-1.92.5.5,0,0,1,.37-.38.47.47,0,0,1,.5.16,2.64,2.64,0,0,0,.6.46l.17.12a20.9,20.9,0,0,1,1.14-4.18c.77-1.7,2.07-3.88,2.13-4a.49.49,0,0,1,.68-.17.48.48,0,0,1,.17.68s-1.33,2.23-2.07,3.87a24.44,24.44,0,0,0-1.21,4.83.5.5,0,0,1-.9.21,2.28,2.28,0,0,0-.66-.55l-.13-.08a5.24,5.24,0,0,1-.58,1.44,2.7,2.7,0,0,1-2.2,1.37Z" fill="#231f20"></path><path d="M193.86,177.77s-1,6.9,1.86,7.92,17.52-10.66,16.5-13.25-6-3.48-10.5,0A68.43,68.43,0,0,1,193.86,177.77Z" fill="#231f20"></path><path d="M196.11,186.24a1.55,1.55,0,0,1-.55-.09c-3.15-1.11-2.3-7.7-2.19-8.45a.51.51,0,0,1,.25-.37,68.44,68.44,0,0,0,7.8-5.28,9.76,9.76,0,0,1,8.35-2.15,4.16,4.16,0,0,1,2.92,2.36c.13.34.54,1.39-2.63,4.66C206.73,180.36,199.14,186.24,196.11,186.24Zm-1.79-8.16c-.24,2-.37,6.45,1.57,7.14,1.57.55,9-4.4,13.45-9,2.16-2.22,2.54-3.32,2.42-3.61a3.21,3.21,0,0,0-2.26-1.76,8.84,8.84,0,0,0-7.47,2A71.47,71.47,0,0,1,194.32,178.08Z" fill="#231f20"></path><path d="M164.34,146.52s17.48,4.69,30.53,2.3l-1.18,28.92s4.95,1.8,10.34-5.16c0,0,5.21-35.53,1.84-37.24s-34.26.31-34.26.31Z" fill="#fff"></path><path d="M195.26,178.47a5.73,5.73,0,0,1-1.74-.24.52.52,0,0,1-.34-.51l1.15-28.28c-13,2.12-30-2.37-30.13-2.42a.48.48,0,0,1-.34-.32.52.52,0,0,1,0-.47l7.27-10.87a.54.54,0,0,1,.4-.23c3.17-.2,31.12-2,34.52-.25s-.68,31.78-1.56,37.77a.64.64,0,0,1-.1.24C200.76,177.64,197.27,178.47,195.26,178.47Zm-1-1.12c1.17.23,5,.48,9.31-5,2.52-17.25,4-35.61,2.09-36.57-2.63-1.33-25-.22-33.73.35l-6.73,10c3.39.83,18.29,4.19,29.61,2.12a.48.48,0,0,1,.43.12.49.49,0,0,1,.18.41Z" fill="#231f20"></path><path d="M154.68,141.48s-4.61,28.29-5.51,28.74-26,22.23-26,22.23l7.41,6.52s28-16.94,29.59-21.95,14.07-35.54,14.07-35.54Z" fill="#fff"></path><path d="M130.59,199.48a.5.5,0,0,1-.34-.13l-7.41-6.51a.51.51,0,0,1,0-.78c4.09-3.54,24.07-20.87,26-22.22.76-1.42,3.67-18.13,5.35-28.44a.52.52,0,0,1,.51-.44h19.57a.5.5,0,0,1,.42.23.49.49,0,0,1,.05.48c-.12.31-12.5,30.58-14.05,35.51-1.61,5.13-28.66,21.53-29.81,22.23A.52.52,0,0,1,130.59,199.48Zm-6.63-7,6.69,5.87c8-4.84,27.81-17.56,29-21.46,1.44-4.6,11.86-30.15,13.79-34.87H155.11c-4.58,28.12-5.4,28.53-5.71,28.68C148.57,171.18,133.91,183.83,124,192.46Zm25.21-22.24h0Z" fill="#231f20"></path><path d="M144.34,168.16s15.92,10.85,25.22,9c26.79-5.45,40.47-42.46,40.47-42.46s-18-2.41-27.56-4.8l-27.79,8.9Z" fill="#231f20"></path><path d="M167.2,177.84c-9.42,0-22.54-8.86-23.14-9.27a.5.5,0,0,1-.19-.58l10.34-29.4a.5.5,0,0,1,.31-.31l27.8-8.89a.49.49,0,0,1,.27,0c9.42,2.36,27.33,4.76,27.51,4.78a.5.5,0,0,1,.36.24.54.54,0,0,1,0,.43c-.14.37-14.09,37.34-40.84,42.77A12.29,12.29,0,0,1,167.2,177.84ZM144.94,168c2.28,1.49,16.25,10.35,24.52,8.67,24.38-4.95,38-36.85,39.88-41.57-3.26-.44-18.36-2.57-26.85-4.68l-27.43,8.77Z" fill="#231f20"></path><path d="M189.69,99.35s-1.45-5.84-18.86-7.7a25.51,25.51,0,0,0-12.41,1.62c-.45,2.7-4.57,36.28-6.37,45.49,0,0,23.46,5.12,32.92-8.23C185,130.53,188.35,102.27,189.69,99.35Z" fill="#68e1fd"></path><path d="M169.56,98s-17.72,2-22.22,4.19-19.56,18.93-19.56,18.93l6.89,6.61s11.66-11.33,14.9-12.8,16.62,1.45,16.62,1.45Z" fill="#68e1fd"></path><path d="M189.69,99.35l9.76,16.26L210,102.13l5.54,6.12s-9.32,18.32-13.83,18.23c-9.78-.19-22.83-13.2-22.83-13.2Z" fill="#68e1fd"></path><path d="M130.59,199c-.53-6.68-3.59-8.66-5.78-7.93s-3.68.94-3.06,7.43,4.13,15.83,7.66,15S131.12,205.64,130.59,199Z" fill="#231f20"></path><path d="M129,214a3,3,0,0,1-1.76-.63c-2.91-2.08-5.42-9.36-6-14.86-.6-6.32.74-7.08,3.15-7.87l.26-.08a3.46,3.46,0,0,1,3.06.47c1.86,1.23,3.06,4,3.37,7.89.11,1.41.28,2.85.45,4.24.65,5.37,1.2,10-2,10.77A2.78,2.78,0,0,1,129,214Zm-3.27-22.62a2.22,2.22,0,0,0-.72.12l-.26.09c-1.89.61-3,1-2.47,6.83.5,5.17,2.89,12.24,5.53,14.14a1.85,1.85,0,0,0,1.53.4c2.35-.56,1.84-4.79,1.25-9.69-.17-1.39-.34-2.84-.45-4.27-.39-4.78-2-6.53-2.93-7.14A2.63,2.63,0,0,0,125.69,191.39Z" fill="#231f20"></path><path d="M176,64.65a18.54,18.54,0,0,0-13.75,2.87,10.76,10.76,0,0,0-3.22,3.36c-2.3,4-.72,8.92-2.14,13.18s-6.24,7.51-9.37,10.48c-3.6,3.41-7.1,7.07-9.26,11.54-3.59,7.45-1.58,14.27,3.53,20.31a12.31,12.31,0,0,0,2.38,2.24,13.43,13.43,0,0,0,5.89,1.87c3.85.51,9.4.89,12.8-1.46,2.43-1.69,4.29-5.63,4.42-8.5s-1.05-6-.23-8.86c1.22-4.25,6.36-6.44,7.58-10.68.87-3.06-.56-6.29-2.35-8.91-1.38-2-3.08-4.34-2.34-6.67.44-1.38,1.65-2.35,2.54-3.48a8.73,8.73,0,0,0,1.82-5c.08-1.61-.72-3.09-.66-4.64,1.36.62,3,0,4.36-.14,1.73-.19,3.46-.42,5.19-.68a8,8,0,0,0-2.8-4.65A10.8,10.8,0,0,0,176,64.65Z" fill="#fff"></path><path d="M155.24,131.39A41.15,41.15,0,0,1,150,131a14.18,14.18,0,0,1-6.1-1.95,12.51,12.51,0,0,1-2.48-2.34c-5.77-6.82-7-13.83-3.6-20.84,2.2-4.55,5.8-8.31,9.37-11.7.73-.69,1.54-1.39,2.4-2.12,2.71-2.34,5.79-5,6.84-8.15a19.72,19.72,0,0,0,.69-5.65c.06-2.57.13-5.23,1.49-7.62A11.16,11.16,0,0,1,162,67.11a19.08,19.08,0,0,1,14.14-3,11.27,11.27,0,0,1,4.6,2.29,8.35,8.35,0,0,1,3,5,.52.52,0,0,1-.09.38.54.54,0,0,1-.33.2c-1.73.26-3.49.49-5.21.68-.35,0-.71.11-1.08.18a7.5,7.5,0,0,1-2.8.15,13.36,13.36,0,0,0,.28,1.46,8.67,8.67,0,0,1,.35,2.52,9.25,9.25,0,0,1-1.92,5.27c-.27.35-.57.67-.86,1a6.76,6.76,0,0,0-1.6,2.33c-.64,2,.8,4.09,2.07,6l.2.28c2.38,3.49,3.19,6.63,2.42,9.34-.65,2.24-2.31,3.92-3.91,5.55s-3.09,3.13-3.67,5.12a12.68,12.68,0,0,0,0,5.1,20.19,20.19,0,0,1,.26,3.65c-.13,2.82-1.94,7-4.64,8.89C161,131,158.08,131.39,155.24,131.39ZM172.79,64.8a18.46,18.46,0,0,0-10.22,3.13,10.12,10.12,0,0,0-3.07,3.19c-1.24,2.17-1.3,4.59-1.36,7.15a20.36,20.36,0,0,1-.74,6c-1.13,3.42-4.33,6.16-7.14,8.58-.85.73-1.65,1.42-2.36,2.1-3.5,3.32-7,7-9.16,11.4-3.19,6.62-2,13.27,3.46,19.77a11.61,11.61,0,0,0,2.28,2.15,13.26,13.26,0,0,0,5.67,1.79c2.17.28,8.79,1.16,12.45-1.38,2.37-1.64,4.09-5.52,4.21-8.11a20.45,20.45,0,0,0-.25-3.48,13.41,13.41,0,0,1,0-5.5c.65-2.24,2.31-3.93,3.91-5.55s3.09-3.13,3.67-5.13c.68-2.41-.08-5.26-2.28-8.49l-.2-.29c-1.4-2-3-4.36-2.2-6.81a7.47,7.47,0,0,1,1.81-2.7c.28-.31.56-.62.81-.94a8.32,8.32,0,0,0,1.71-4.71,7.63,7.63,0,0,0-.32-2.24,9.09,9.09,0,0,1-.34-2.4.49.49,0,0,1,.71-.43,5.07,5.07,0,0,0,2.94,0c.39-.07.78-.14,1.15-.18,1.54-.18,3.1-.38,4.65-.6a7.65,7.65,0,0,0-2.52-3.85,10.2,10.2,0,0,0-4.19-2.08h0A13.69,13.69,0,0,0,172.79,64.8Z" fill="#231f20"></path><path d="M176.28,77.83a3.73,3.73,0,0,0-.83-1.86,5.25,5.25,0,0,0-1-1.22,1.78,1.78,0,0,0-1.49-.4,1.65,1.65,0,0,0-1.05.88,3.23,3.23,0,0,0-.31,1.37,5.89,5.89,0,0,0,2.88,5.15l-.16-.16" fill="#fff"></path><path d="M174.45,82.25a.45.45,0,0,1-.25-.07,6.42,6.42,0,0,1-3.13-5.59,3.77,3.77,0,0,1,.36-1.59,2.15,2.15,0,0,1,1.38-1.14,2.28,2.28,0,0,1,1.92.5,5.89,5.89,0,0,1,1.14,1.33,4.14,4.14,0,0,1,.91,2.12.5.5,0,0,1-.48.52.51.51,0,0,1-.52-.48,3.22,3.22,0,0,0-.74-1.6,4.76,4.76,0,0,0-.93-1.1,1.29,1.29,0,0,0-1.07-.32,1.22,1.22,0,0,0-.72.63,2.7,2.7,0,0,0-.25,1.16,5.43,5.43,0,0,0,2.28,4.47.57.57,0,0,1,.3.15l.16.16a.5.5,0,0,1,0,.66A.49.49,0,0,1,174.45,82.25Z" fill="#231f20"></path><path d="M199.77,127h-.09c-9.91-1.85-20.69-14.44-21.15-15a.5.5,0,1,1,.76-.64c.11.12,11,12.86,20.57,14.63a.5.5,0,0,1-.09,1Z" fill="#231f20"></path><path d="M177.67,86l-4.73-1.17a5.25,5.25,0,0,0,2.72,2.64c1.85.91,2.71.61,2.71.61Z" fill="#231f20"></path><path d="M178,88.62a6.87,6.87,0,0,1-5.5-3.63.48.48,0,0,1,.11-.5.5.5,0,0,1,.49-.15l4.73,1.17a.51.51,0,0,1,.36.32l.7,2.08a.5.5,0,0,1-.31.63A1.68,1.68,0,0,1,178,88.62Zm-4-3A5.94,5.94,0,0,0,175.88,87a5.4,5.4,0,0,0,1.81.59l-.4-1.19Z" fill="#231f20"></path><path d="M153.5,270.74h0a.49.49,0,0,1-.47-.52l.83-17.24a.5.5,0,0,1,.52-.47.49.49,0,0,1,.47.52L154,270.27A.49.49,0,0,1,153.5,270.74Z" fill="#231f20"></path><path d="M279.45,105.59a.5.5,0,0,1-.48-.34l-1.46-4.53a.49.49,0,0,1,.32-.62.5.5,0,0,1,.63.32l1.46,4.52a.5.5,0,0,1-.32.63A.39.39,0,0,1,279.45,105.59Z" fill="#231f20"></path></g></svg>